<svg width="32" height="33" viewBox="0 0 32 33" fill="none" xmlns="http://www.w3.org/2000/svg">
<g clip-path="url(#clip0_1095_297)">
<path d="M15.8068 1.39502V7.70551C15.8068 8.81008 16.7023 9.70551 17.8068 9.70551L24.4446 9.70548" stroke="#7E7E7E" stroke-linejoin="round"/>
<path d="M8.10828 10.9375H12.3704" stroke="#7E7E7E" stroke-linecap="round"/>
<path d="M8.10828 15.2329H18.9112" stroke="#7E7E7E" stroke-linecap="round"/>
<path fill-rule="evenodd" clip-rule="evenodd" d="M16.319 19.0657H8.10828C7.83213 19.0657 7.60828 19.2895 7.60828 19.5657C7.60828 19.8418 7.83213 20.0657 8.10828 20.0657H15.3112C15.6113 19.6982 15.9491 19.3629 16.319 19.0657Z" fill="#7E7E7E"/>
<mask id="path-5-inside-1_1095_297" fill="white">
<path fill-rule="evenodd" clip-rule="evenodd" d="M13.8904 23.2424H8.10828C7.83213 23.2424 7.60828 23.4663 7.60828 23.7424C7.60828 24.0186 7.83213 24.2424 8.10828 24.2424H13.829C13.8287 24.2154 13.8285 24.1884 13.8285 24.1613C13.8285 23.8496 13.8496 23.5429 13.8904 23.2424Z"/>
</mask>
<path fill-rule="evenodd" clip-rule="evenodd" d="M13.8904 23.2424H8.10828C7.83213 23.2424 7.60828 23.4663 7.60828 23.7424C7.60828 24.0186 7.83213 24.2424 8.10828 24.2424H13.829C13.8287 24.2154 13.8285 24.1884 13.8285 24.1613C13.8285 23.8496 13.8496 23.5429 13.8904 23.2424Z" fill="white"/>
<path d="M13.8904 23.2424L14.8813 23.3771L15.0355 22.2424H13.8904V23.2424ZM13.829 24.2424V25.2424H14.8408L14.8289 24.2307L13.829 24.2424ZM8.10828 24.2424H13.8904V22.2424H8.10828V24.2424ZM8.60828 23.7424C8.60828 24.0186 8.38442 24.2424 8.10828 24.2424V22.2424C7.27985 22.2424 6.60828 22.914 6.60828 23.7424H8.60828ZM8.10828 23.2424C8.38442 23.2424 8.60828 23.4663 8.60828 23.7424H6.60828C6.60828 24.5709 7.27985 25.2424 8.10828 25.2424V23.2424ZM13.829 23.2424H8.10828V25.2424H13.829V23.2424ZM14.8289 24.2307C14.8286 24.2076 14.8285 24.1845 14.8285 24.1613H12.8285C12.8285 24.1923 12.8287 24.2233 12.829 24.2542L14.8289 24.2307ZM14.8285 24.1613C14.8285 23.8948 14.8465 23.633 14.8813 23.3771L12.8995 23.1078C12.8526 23.4527 12.8285 23.8045 12.8285 24.1613H14.8285Z" fill="#7E7E7E" mask="url(#path-5-inside-1_1095_297)"/>
<path fill-rule="evenodd" clip-rule="evenodd" d="M4.75781 0.387207C3.3771 0.387207 2.25781 1.50649 2.25781 2.88721V26.7913C2.25781 28.172 3.3771 29.2913 4.75781 29.2913H15.996C15.6688 28.9883 15.3718 28.6533 15.1096 28.2913H4.75781C3.92939 28.2913 3.25781 27.6197 3.25781 26.7913V2.88721C3.25781 2.05878 3.92938 1.38721 4.75781 1.38721H14.9759C15.3685 1.38721 15.7454 1.54107 16.0257 1.81579L23.949 9.57919C24.2369 9.86132 24.3992 10.2475 24.3992 10.6506V18.7441C24.759 18.99 25.0939 19.2697 25.3992 19.5787V10.6506C25.3992 9.97873 25.1288 9.33514 24.6489 8.86492L16.7256 1.10152C16.2583 0.643654 15.6302 0.387207 14.9759 0.387207H4.75781ZM24.4654 20.068C24.4435 20.0481 24.4214 20.0283 24.3992 20.0087V20.068H24.4654Z" fill="#7E7E7E"/>
<circle cx="20.5584" cy="24.22" r="5.32257" fill="url(#paint0_linear_1095_297)" stroke="#7E7E7E"/>
<path d="M24.4673 28.1289L28.2947 31.9563" stroke="#7E7E7E" stroke-linecap="round" stroke-linejoin="round"/>
</g>
<defs>
<linearGradient id="paint0_linear_1095_297" x1="20.5584" y1="18.3975" x2="20.5584" y2="30.0426" gradientUnits="userSpaceOnUse">
<stop stop-color="#FF6C37"/>
<stop offset="1" stop-color="#FFB400"/>
</linearGradient>
<clipPath id="clip0_1095_297">
<rect width="32" height="32" fill="white" transform="translate(0 0.5)"/>
</clipPath>
</defs>
</svg>
